<svg xmlns="http://www.w3.org/2000/svg"
  xmlns:xlink="http://www.w3.org/1999/xlink"
  width="375"
  height="375"
  viewBox="0 0 375 375">
  <defs>
    <rect id="playlist-placeholder-a"
      width="375"
      height="375"/>
  </defs>
  <g fill="none"
    fill-rule="evenodd">
    <use fill="#464646"
      xlink:href="#playlist-placeholder-a"/>
    <path fill="#CCC"
      fill-rule="nonzero"
      d="M111.814951,133.629901 C109.708012,133.629901 108,131.92189 108,129.814951 C108,127.708012 109.708012,126 111.814951,126 L203.373767,126 C205.480706,126 207.188717,127.708012 207.188717,129.814951 C207.188717,131.92189 205.480706,133.629901 203.373767,133.629901 L111.814951,133.629901 Z M111.814951,169.236108 C109.708012,169.236108 108,167.528096 108,165.421157 C108,163.314218 109.708012,161.606206 111.814951,161.606206 L193.200565,161.606206 C195.307504,161.606206 197.015516,163.314218 197.015516,165.421157 C197.015516,167.528096 195.307504,169.236108 193.200565,169.236108 L111.814951,169.236108 Z M111.814951,204.842314 C109.708012,204.842314 108,203.134302 108,201.027363 C108,198.920424 109.708012,197.212413 111.814951,197.212413 L167.767561,197.212413 C169.8745,197.212413 171.582511,198.920424 171.582511,201.027363 C171.582511,203.134302 169.8745,204.842314 167.767561,204.842314 L111.814951,204.842314 Z M111.814951,240.44852 C109.708012,240.44852 108,238.740509 108,236.633569 C108,234.52663 109.708012,232.818619 111.814951,232.818619 L152.507758,232.818619 C154.614697,232.818619 156.322709,234.52663 156.322709,236.633569 C156.322709,238.740509 154.614697,240.44852 152.507758,240.44852 L111.814951,240.44852 Z M236.19979,209.343356 L236.19979,130.868644 C236.19979,127.880944 239.636048,126.200326 241.994396,128.034596 C241.882406,127.947493 247.101093,131.939789 248.649905,133.183194 C261.647418,143.617761 268,154.296274 268,171.901173 C268,173.884067 266.392547,175.491519 264.409654,175.491519 C262.42676,175.491519 260.819307,173.884067 260.819307,171.901173 C260.819307,156.74789 255.596404,147.968333 244.154566,138.782683 C243.956194,138.623427 243.690904,138.413991 243.380483,138.170906 L243.380483,212.933702 L243.380483,229.346714 C243.380483,240.394263 234.424674,249.350072 223.377125,249.350072 C212.329575,249.350072 203.373767,240.394263 203.373767,229.346714 C203.373767,218.299164 212.329575,209.343356 223.377125,209.343356 L236.19979,209.343356 Z"
      opacity=".5"/>
  </g>
</svg>
